<mxfile host="app.diagrams.net" modified="2022-11-01T05:22:53.083Z" agent="5.0 (Windows NT 10.0; Win64; x64) AppleWebKit/537.36 (KHTML, like Gecko) Chrome/106.0.0.0 Safari/537.36" etag="ryjyLSfD_SMI4ckzTd7e" version="20.5.1" type="github">
  <diagram id="4QdjrTniJYbwN_iSQlsD" name="第 1 页">
    <mxGraphModel dx="2635" dy="1717" grid="1" gridSize="10" guides="1" tooltips="1" connect="1" arrows="1" fold="1" page="1" pageScale="1" pageWidth="827" pageHeight="1169" math="0" shadow="0">
      <root>
        <mxCell id="0" />
        <mxCell id="1" parent="0" />
        <mxCell id="eXN-wqGETpJcmfL0_PJ0-4" style="edgeStyle=orthogonalEdgeStyle;sketch=1;hachureGap=4;jiggle=2;orthogonalLoop=1;jettySize=auto;html=1;exitX=1;exitY=0.5;exitDx=0;exitDy=0;fontFamily=Architects Daughter;fontSource=https%3A%2F%2Ffonts.googleapis.com%2Fcss%3Ffamily%3DArchitects%2BDaughter;fontSize=6;entryX=0;entryY=0.5;entryDx=0;entryDy=0;curved=1;shadow=0;" parent="1" source="eXN-wqGETpJcmfL0_PJ0-1" target="eXN-wqGETpJcmfL0_PJ0-5" edge="1">
          <mxGeometry relative="1" as="geometry">
            <mxPoint x="-570" y="40" as="targetPoint" />
            <Array as="points">
              <mxPoint x="-670" y="90" />
              <mxPoint x="-595" y="90" />
              <mxPoint x="-595" y="50" />
            </Array>
          </mxGeometry>
        </mxCell>
        <mxCell id="eXN-wqGETpJcmfL0_PJ0-11" value="" style="edgeStyle=orthogonalEdgeStyle;sketch=1;hachureGap=4;jiggle=2;orthogonalLoop=1;jettySize=auto;html=1;fontFamily=Architects Daughter;fontSource=https%3A%2F%2Ffonts.googleapis.com%2Fcss%3Ffamily%3DArchitects%2BDaughter;fontSize=6;curved=1;" parent="1" source="eXN-wqGETpJcmfL0_PJ0-1" target="eXN-wqGETpJcmfL0_PJ0-10" edge="1">
          <mxGeometry relative="1" as="geometry">
            <Array as="points">
              <mxPoint x="-605" y="170" />
              <mxPoint x="-605" y="200" />
            </Array>
          </mxGeometry>
        </mxCell>
        <mxCell id="eXN-wqGETpJcmfL0_PJ0-17" style="edgeStyle=orthogonalEdgeStyle;sketch=1;hachureGap=4;jiggle=2;orthogonalLoop=1;jettySize=auto;html=1;exitX=1;exitY=0.5;exitDx=0;exitDy=0;fontFamily=Architects Daughter;fontSource=https%3A%2F%2Ffonts.googleapis.com%2Fcss%3Ffamily%3DArchitects%2BDaughter;fontSize=6;curved=1;" parent="1" source="eXN-wqGETpJcmfL0_PJ0-1" target="eXN-wqGETpJcmfL0_PJ0-16" edge="1">
          <mxGeometry relative="1" as="geometry">
            <Array as="points">
              <mxPoint x="-670" y="290" />
            </Array>
          </mxGeometry>
        </mxCell>
        <mxCell id="eXN-wqGETpJcmfL0_PJ0-41" style="edgeStyle=orthogonalEdgeStyle;curved=1;sketch=1;hachureGap=4;jiggle=2;orthogonalLoop=1;jettySize=auto;html=1;exitX=1;exitY=0.5;exitDx=0;exitDy=0;shadow=0;fontFamily=Architects Daughter;fontSource=https%3A%2F%2Ffonts.googleapis.com%2Fcss%3Ffamily%3DArchitects%2BDaughter;fontSize=12;" parent="1" source="eXN-wqGETpJcmfL0_PJ0-1" target="eXN-wqGETpJcmfL0_PJ0-40" edge="1">
          <mxGeometry relative="1" as="geometry">
            <Array as="points">
              <mxPoint x="-690" y="460" />
            </Array>
          </mxGeometry>
        </mxCell>
        <mxCell id="eXN-wqGETpJcmfL0_PJ0-1" value="&lt;span style=&quot;font-size: 6px;&quot;&gt;QuorumPeer.start()&lt;/span&gt;" style="rounded=0;whiteSpace=wrap;html=1;sketch=1;hachureGap=4;jiggle=2;fontFamily=Architects Daughter;fontSource=https%3A%2F%2Ffonts.googleapis.com%2Fcss%3Ffamily%3DArchitects%2BDaughter;fontSize=20;fillColor=#ffe6cc;strokeColor=#d79b00;" parent="1" vertex="1">
          <mxGeometry x="-810" y="140" width="120" height="60" as="geometry" />
        </mxCell>
        <mxCell id="eXN-wqGETpJcmfL0_PJ0-9" value="" style="edgeStyle=orthogonalEdgeStyle;rounded=0;sketch=1;hachureGap=4;jiggle=2;orthogonalLoop=1;jettySize=auto;html=1;fontFamily=Architects Daughter;fontSource=https%3A%2F%2Ffonts.googleapis.com%2Fcss%3Ffamily%3DArchitects%2BDaughter;fontSize=6;" parent="1" source="eXN-wqGETpJcmfL0_PJ0-5" target="eXN-wqGETpJcmfL0_PJ0-8" edge="1">
          <mxGeometry relative="1" as="geometry" />
        </mxCell>
        <mxCell id="eXN-wqGETpJcmfL0_PJ0-5" value="&lt;span style=&quot;font-size: 6px;&quot;&gt;loadDataBase&lt;/span&gt;" style="rounded=0;whiteSpace=wrap;html=1;sketch=1;hachureGap=4;jiggle=2;fontFamily=Architects Daughter;fontSource=https%3A%2F%2Ffonts.googleapis.com%2Fcss%3Ffamily%3DArchitects%2BDaughter;fontSize=6;fillColor=#ffe6cc;strokeColor=#d79b00;" parent="1" vertex="1">
          <mxGeometry x="-520" y="20" width="120" height="60" as="geometry" />
        </mxCell>
        <mxCell id="eXN-wqGETpJcmfL0_PJ0-8" value="加载磁盘文件到内存" style="rounded=0;whiteSpace=wrap;html=1;sketch=1;hachureGap=4;jiggle=2;fontFamily=Architects Daughter;fontSource=https%3A%2F%2Ffonts.googleapis.com%2Fcss%3Ffamily%3DArchitects%2BDaughter;fontSize=6;fillColor=#ffe6cc;strokeColor=#d79b00;" parent="1" vertex="1">
          <mxGeometry x="-320" y="20" width="120" height="60" as="geometry" />
        </mxCell>
        <mxCell id="eXN-wqGETpJcmfL0_PJ0-13" value="" style="edgeStyle=orthogonalEdgeStyle;rounded=0;sketch=1;hachureGap=4;jiggle=2;orthogonalLoop=1;jettySize=auto;html=1;fontFamily=Architects Daughter;fontSource=https%3A%2F%2Ffonts.googleapis.com%2Fcss%3Ffamily%3DArchitects%2BDaughter;fontSize=6;" parent="1" source="eXN-wqGETpJcmfL0_PJ0-10" target="eXN-wqGETpJcmfL0_PJ0-12" edge="1">
          <mxGeometry relative="1" as="geometry" />
        </mxCell>
        <mxCell id="eXN-wqGETpJcmfL0_PJ0-10" value="&lt;font style=&quot;font-size: 6px;&quot;&gt;startServerCnxnFactory&lt;/font&gt;" style="rounded=0;whiteSpace=wrap;html=1;sketch=1;hachureGap=4;jiggle=2;fontFamily=Architects Daughter;fontSource=https%3A%2F%2Ffonts.googleapis.com%2Fcss%3Ffamily%3DArchitects%2BDaughter;fontSize=20;fillColor=#ffe6cc;strokeColor=#d79b00;" parent="1" vertex="1">
          <mxGeometry x="-520" y="170" width="180" height="60" as="geometry" />
        </mxCell>
        <mxCell id="eXN-wqGETpJcmfL0_PJ0-15" value="" style="edgeStyle=orthogonalEdgeStyle;rounded=0;sketch=1;hachureGap=4;jiggle=2;orthogonalLoop=1;jettySize=auto;html=1;fontFamily=Architects Daughter;fontSource=https%3A%2F%2Ffonts.googleapis.com%2Fcss%3Ffamily%3DArchitects%2BDaughter;fontSize=6;" parent="1" source="eXN-wqGETpJcmfL0_PJ0-12" target="eXN-wqGETpJcmfL0_PJ0-14" edge="1">
          <mxGeometry relative="1" as="geometry" />
        </mxCell>
        <mxCell id="eXN-wqGETpJcmfL0_PJ0-12" value="&lt;font style=&quot;font-size: 6px;&quot;&gt;NIOServerCnxnFactory&lt;/font&gt;" style="rounded=0;whiteSpace=wrap;html=1;sketch=1;hachureGap=4;jiggle=2;fontFamily=Architects Daughter;fontSource=https%3A%2F%2Ffonts.googleapis.com%2Fcss%3Ffamily%3DArchitects%2BDaughter;fontSize=20;fillColor=#ffe6cc;strokeColor=#d79b00;" parent="1" vertex="1">
          <mxGeometry x="-260" y="170" width="180" height="60" as="geometry" />
        </mxCell>
        <mxCell id="eXN-wqGETpJcmfL0_PJ0-14" value="&lt;font style=&quot;font-size: 6px;&quot;&gt;start()&lt;br&gt;创建工作线程workerPool&lt;br&gt;开启&lt;/font&gt;&lt;span style=&quot;font-family: &amp;quot;JetBrains Mono&amp;quot;, monospace; font-size: 9.8pt; color: rgb(152, 118, 170);&quot;&gt;acceptThread 接受客户端请求&lt;/span&gt;" style="rounded=0;whiteSpace=wrap;html=1;sketch=1;hachureGap=4;jiggle=2;fontFamily=Architects Daughter;fontSource=https%3A%2F%2Ffonts.googleapis.com%2Fcss%3Ffamily%3DArchitects%2BDaughter;fontSize=20;fillColor=#ffe6cc;strokeColor=#d79b00;" parent="1" vertex="1">
          <mxGeometry y="125" width="261" height="60" as="geometry" />
        </mxCell>
        <mxCell id="eXN-wqGETpJcmfL0_PJ0-24" value="" style="edgeStyle=orthogonalEdgeStyle;curved=1;sketch=1;hachureGap=4;jiggle=2;orthogonalLoop=1;jettySize=auto;html=1;shadow=0;fontFamily=Architects Daughter;fontSource=https%3A%2F%2Ffonts.googleapis.com%2Fcss%3Ffamily%3DArchitects%2BDaughter;fontSize=6;" parent="1" source="eXN-wqGETpJcmfL0_PJ0-16" target="eXN-wqGETpJcmfL0_PJ0-23" edge="1">
          <mxGeometry relative="1" as="geometry" />
        </mxCell>
        <mxCell id="eXN-wqGETpJcmfL0_PJ0-16" value="&lt;span style=&quot;font-size: 6px;&quot;&gt;startLeaderElection()&lt;/span&gt;" style="rounded=0;whiteSpace=wrap;html=1;sketch=1;hachureGap=4;jiggle=2;fontFamily=Architects Daughter;fontSource=https%3A%2F%2Ffonts.googleapis.com%2Fcss%3Ffamily%3DArchitects%2BDaughter;fontSize=20;fillColor=#ffe6cc;strokeColor=#d79b00;" parent="1" vertex="1">
          <mxGeometry x="-520" y="320" width="120" height="60" as="geometry" />
        </mxCell>
        <mxCell id="eXN-wqGETpJcmfL0_PJ0-20" style="edgeStyle=orthogonalEdgeStyle;curved=1;sketch=1;hachureGap=4;jiggle=2;orthogonalLoop=1;jettySize=auto;html=1;exitX=1;exitY=0.5;exitDx=0;exitDy=0;entryX=0;entryY=0.5;entryDx=0;entryDy=0;shadow=0;fontFamily=Architects Daughter;fontSource=https%3A%2F%2Ffonts.googleapis.com%2Fcss%3Ffamily%3DArchitects%2BDaughter;fontSize=6;" parent="1" source="eXN-wqGETpJcmfL0_PJ0-18" target="eXN-wqGETpJcmfL0_PJ0-1" edge="1">
          <mxGeometry relative="1" as="geometry" />
        </mxCell>
        <mxCell id="eXN-wqGETpJcmfL0_PJ0-18" value="&lt;span style=&quot;font-size: 6px;&quot;&gt;QuorumPeerMain&lt;br&gt;&lt;/span&gt;启动函数" style="rounded=0;whiteSpace=wrap;html=1;sketch=1;hachureGap=4;jiggle=2;fontFamily=Architects Daughter;fontSource=https%3A%2F%2Ffonts.googleapis.com%2Fcss%3Ffamily%3DArchitects%2BDaughter;fontSize=20;fillColor=#ffe6cc;strokeColor=#d79b00;" parent="1" vertex="1">
          <mxGeometry x="-1100" y="150" width="120" height="60" as="geometry" />
        </mxCell>
        <mxCell id="eXN-wqGETpJcmfL0_PJ0-22" value="根据配置文件构建QuorumPeer线程&lt;br&gt;&lt;span style=&quot;font-size: 6px;&quot;&gt;runFromConfig&lt;/span&gt;" style="text;html=1;strokeColor=none;fillColor=none;align=center;verticalAlign=middle;whiteSpace=wrap;rounded=0;sketch=1;hachureGap=4;jiggle=2;fontFamily=Architects Daughter;fontSource=https%3A%2F%2Ffonts.googleapis.com%2Fcss%3Ffamily%3DArchitects%2BDaughter;fontSize=6;" parent="1" vertex="1">
          <mxGeometry x="-940" y="110" width="100" height="60" as="geometry" />
        </mxCell>
        <mxCell id="eXN-wqGETpJcmfL0_PJ0-27" value="" style="edgeStyle=orthogonalEdgeStyle;curved=1;sketch=1;hachureGap=4;jiggle=2;orthogonalLoop=1;jettySize=auto;html=1;shadow=0;fontFamily=Architects Daughter;fontSource=https%3A%2F%2Ffonts.googleapis.com%2Fcss%3Ffamily%3DArchitects%2BDaughter;fontSize=12;" parent="1" source="eXN-wqGETpJcmfL0_PJ0-23" target="eXN-wqGETpJcmfL0_PJ0-26" edge="1">
          <mxGeometry relative="1" as="geometry" />
        </mxCell>
        <mxCell id="l0C-tS_rNnkQWnDNGzkq-2" style="edgeStyle=orthogonalEdgeStyle;curved=1;sketch=1;orthogonalLoop=1;jettySize=auto;html=1;exitX=1;exitY=0.5;exitDx=0;exitDy=0;" edge="1" parent="1" source="eXN-wqGETpJcmfL0_PJ0-23" target="l0C-tS_rNnkQWnDNGzkq-1">
          <mxGeometry relative="1" as="geometry" />
        </mxCell>
        <mxCell id="eXN-wqGETpJcmfL0_PJ0-23" value="&lt;font style=&quot;font-size: 12px;&quot;&gt;开启选举策略FastLeaderElection&lt;/font&gt;" style="whiteSpace=wrap;html=1;fontSize=20;fontFamily=Architects Daughter;fillColor=#ffe6cc;strokeColor=#d79b00;rounded=0;sketch=1;hachureGap=4;jiggle=2;fontSource=https%3A%2F%2Ffonts.googleapis.com%2Fcss%3Ffamily%3DArchitects%2BDaughter;" parent="1" vertex="1">
          <mxGeometry x="-320" y="320" width="120" height="60" as="geometry" />
        </mxCell>
        <mxCell id="eXN-wqGETpJcmfL0_PJ0-26" value="&lt;font style=&quot;font-size: 12px;&quot;&gt;创建选票用自己的信息创建&lt;/font&gt;" style="whiteSpace=wrap;html=1;fontSize=20;fontFamily=Architects Daughter;fillColor=#ffe6cc;strokeColor=#d79b00;rounded=0;sketch=1;hachureGap=4;jiggle=2;fontSource=https%3A%2F%2Ffonts.googleapis.com%2Fcss%3Ffamily%3DArchitects%2BDaughter;" parent="1" vertex="1">
          <mxGeometry x="-130" y="260" width="120" height="60" as="geometry" />
        </mxCell>
        <mxCell id="l0C-tS_rNnkQWnDNGzkq-33" style="edgeStyle=orthogonalEdgeStyle;curved=1;sketch=1;orthogonalLoop=1;jettySize=auto;html=1;exitX=1;exitY=0.5;exitDx=0;exitDy=0;entryX=0;entryY=0.5;entryDx=0;entryDy=0;fontSize=12;" edge="1" parent="1" source="eXN-wqGETpJcmfL0_PJ0-28" target="eXN-wqGETpJcmfL0_PJ0-34">
          <mxGeometry relative="1" as="geometry" />
        </mxCell>
        <mxCell id="l0C-tS_rNnkQWnDNGzkq-34" style="edgeStyle=orthogonalEdgeStyle;curved=1;sketch=1;orthogonalLoop=1;jettySize=auto;html=1;exitX=1;exitY=0.5;exitDx=0;exitDy=0;entryX=0;entryY=0.5;entryDx=0;entryDy=0;fontSize=12;" edge="1" parent="1" source="eXN-wqGETpJcmfL0_PJ0-28" target="eXN-wqGETpJcmfL0_PJ0-30">
          <mxGeometry relative="1" as="geometry" />
        </mxCell>
        <mxCell id="eXN-wqGETpJcmfL0_PJ0-28" value="&lt;font style=&quot;font-size: 12px;&quot;&gt;开启WorkerSender线程&lt;br&gt;开启WorkerReceiver线程&lt;br&gt;&lt;/font&gt;" style="whiteSpace=wrap;html=1;fontSize=20;fontFamily=Architects Daughter;fillColor=#ffe6cc;strokeColor=#d79b00;rounded=0;sketch=1;hachureGap=4;jiggle=2;fontSource=https%3A%2F%2Ffonts.googleapis.com%2Fcss%3Ffamily%3DArchitects%2BDaughter;" parent="1" vertex="1">
          <mxGeometry x="160" y="400" width="160" height="60" as="geometry" />
        </mxCell>
        <mxCell id="eXN-wqGETpJcmfL0_PJ0-33" value="" style="edgeStyle=orthogonalEdgeStyle;curved=1;sketch=1;hachureGap=4;jiggle=2;orthogonalLoop=1;jettySize=auto;html=1;shadow=0;fontFamily=Architects Daughter;fontSource=https%3A%2F%2Ffonts.googleapis.com%2Fcss%3Ffamily%3DArchitects%2BDaughter;fontSize=12;" parent="1" source="eXN-wqGETpJcmfL0_PJ0-30" target="eXN-wqGETpJcmfL0_PJ0-32" edge="1">
          <mxGeometry relative="1" as="geometry" />
        </mxCell>
        <mxCell id="eXN-wqGETpJcmfL0_PJ0-30" value="&lt;font style=&quot;font-size: 12px;&quot;&gt;WorkerSender消费sendqueue队列&lt;/font&gt;" style="whiteSpace=wrap;html=1;fontSize=20;fontFamily=Architects Daughter;fillColor=#ffe6cc;strokeColor=#d79b00;rounded=0;sketch=1;hachureGap=4;jiggle=2;fontSource=https%3A%2F%2Ffonts.googleapis.com%2Fcss%3Ffamily%3DArchitects%2BDaughter;" parent="1" vertex="1">
          <mxGeometry x="510" y="350" width="120" height="60" as="geometry" />
        </mxCell>
        <mxCell id="l0C-tS_rNnkQWnDNGzkq-26" style="edgeStyle=orthogonalEdgeStyle;curved=1;sketch=1;orthogonalLoop=1;jettySize=auto;html=1;exitX=1;exitY=0.5;exitDx=0;exitDy=0;fontSize=12;dashed=1;" edge="1" parent="1" source="eXN-wqGETpJcmfL0_PJ0-32" target="l0C-tS_rNnkQWnDNGzkq-16">
          <mxGeometry relative="1" as="geometry" />
        </mxCell>
        <mxCell id="eXN-wqGETpJcmfL0_PJ0-32" value="&lt;font style=&quot;font-size: 12px;&quot;&gt;根据消息的sid发送到对应的队列里面,从&lt;/font&gt;&lt;span style=&quot;font-size: 12px;&quot;&gt;queueSendMap里面取出一个队列,put进去&lt;/span&gt;" style="whiteSpace=wrap;html=1;fontSize=20;fontFamily=Architects Daughter;fillColor=#ffe6cc;strokeColor=#d79b00;rounded=0;sketch=1;hachureGap=4;jiggle=2;fontSource=https%3A%2F%2Ffonts.googleapis.com%2Fcss%3Ffamily%3DArchitects%2BDaughter;" parent="1" vertex="1">
          <mxGeometry x="740" y="335" width="160" height="90" as="geometry" />
        </mxCell>
        <mxCell id="l0C-tS_rNnkQWnDNGzkq-38" value="" style="edgeStyle=orthogonalEdgeStyle;curved=1;sketch=1;orthogonalLoop=1;jettySize=auto;html=1;fontSize=12;" edge="1" parent="1" source="eXN-wqGETpJcmfL0_PJ0-34" target="l0C-tS_rNnkQWnDNGzkq-37">
          <mxGeometry relative="1" as="geometry" />
        </mxCell>
        <mxCell id="eXN-wqGETpJcmfL0_PJ0-34" value="&lt;font style=&quot;&quot;&gt;&lt;font style=&quot;font-size: 12px;&quot;&gt;WorkerReceiver消费&lt;br&gt;recvQueue队列&lt;/font&gt;&lt;br&gt;&lt;/font&gt;" style="whiteSpace=wrap;html=1;fontSize=20;fontFamily=Architects Daughter;fillColor=#ffe6cc;strokeColor=#d79b00;rounded=0;sketch=1;hachureGap=4;jiggle=2;fontSource=https%3A%2F%2Ffonts.googleapis.com%2Fcss%3Ffamily%3DArchitects%2BDaughter;" parent="1" vertex="1">
          <mxGeometry x="510" y="500" width="140" height="50" as="geometry" />
        </mxCell>
        <mxCell id="eXN-wqGETpJcmfL0_PJ0-36" value="&lt;font style=&quot;font-size: 12px;&quot;&gt;&lt;br&gt;不存在就是根据当前自己的票据信息返回回去构建toSend对象.添加到sendqueue队列里面&lt;br&gt;&lt;/font&gt;" style="whiteSpace=wrap;html=1;fontSize=20;fontFamily=Architects Daughter;fillColor=#ffe6cc;strokeColor=#d79b00;rounded=0;sketch=1;hachureGap=4;jiggle=2;fontSource=https%3A%2F%2Ffonts.googleapis.com%2Fcss%3Ffamily%3DArchitects%2BDaughter;" parent="1" vertex="1">
          <mxGeometry x="710" y="592.5" width="175" height="170" as="geometry" />
        </mxCell>
        <mxCell id="eXN-wqGETpJcmfL0_PJ0-43" value="" style="edgeStyle=orthogonalEdgeStyle;curved=1;sketch=1;hachureGap=4;jiggle=2;orthogonalLoop=1;jettySize=auto;html=1;shadow=0;fontFamily=Architects Daughter;fontSource=https%3A%2F%2Ffonts.googleapis.com%2Fcss%3Ffamily%3DArchitects%2BDaughter;fontSize=12;" parent="1" source="eXN-wqGETpJcmfL0_PJ0-40" target="eXN-wqGETpJcmfL0_PJ0-42" edge="1">
          <mxGeometry relative="1" as="geometry" />
        </mxCell>
        <mxCell id="eXN-wqGETpJcmfL0_PJ0-40" value="&lt;span style=&quot;font-size: 6px;&quot;&gt;run()开启线程,选举逻辑处理&lt;/span&gt;" style="rounded=0;whiteSpace=wrap;html=1;sketch=1;hachureGap=4;jiggle=2;fontFamily=Architects Daughter;fontSource=https%3A%2F%2Ffonts.googleapis.com%2Fcss%3Ffamily%3DArchitects%2BDaughter;fontSize=20;fillColor=#ffe6cc;strokeColor=#d79b00;" parent="1" vertex="1">
          <mxGeometry x="-520" y="430" width="140" height="80" as="geometry" />
        </mxCell>
        <mxCell id="eXN-wqGETpJcmfL0_PJ0-45" value="" style="edgeStyle=orthogonalEdgeStyle;curved=1;sketch=1;hachureGap=4;jiggle=2;orthogonalLoop=1;jettySize=auto;html=1;shadow=0;fontFamily=Architects Daughter;fontSource=https%3A%2F%2Ffonts.googleapis.com%2Fcss%3Ffamily%3DArchitects%2BDaughter;fontSize=12;entryX=0;entryY=0.5;entryDx=0;entryDy=0;" parent="1" source="eXN-wqGETpJcmfL0_PJ0-42" target="eXN-wqGETpJcmfL0_PJ0-44" edge="1">
          <mxGeometry relative="1" as="geometry" />
        </mxCell>
        <mxCell id="l0C-tS_rNnkQWnDNGzkq-28" style="edgeStyle=orthogonalEdgeStyle;curved=1;sketch=1;orthogonalLoop=1;jettySize=auto;html=1;fontSize=12;entryX=0;entryY=0.5;entryDx=0;entryDy=0;" edge="1" parent="1" source="eXN-wqGETpJcmfL0_PJ0-42" target="l0C-tS_rNnkQWnDNGzkq-27">
          <mxGeometry relative="1" as="geometry" />
        </mxCell>
        <mxCell id="eXN-wqGETpJcmfL0_PJ0-42" value="&lt;span style=&quot;font-size: 6px;&quot;&gt;run()开启线程&lt;/span&gt;" style="rounded=0;whiteSpace=wrap;html=1;sketch=1;hachureGap=4;jiggle=2;fontFamily=Architects Daughter;fontSource=https%3A%2F%2Ffonts.googleapis.com%2Fcss%3Ffamily%3DArchitects%2BDaughter;fontSize=20;fillColor=#ffe6cc;strokeColor=#d79b00;" parent="1" vertex="1">
          <mxGeometry x="-310" y="470" width="100" height="60" as="geometry" />
        </mxCell>
        <mxCell id="eXN-wqGETpJcmfL0_PJ0-47" value="" style="edgeStyle=orthogonalEdgeStyle;curved=1;sketch=1;hachureGap=4;jiggle=2;orthogonalLoop=1;jettySize=auto;html=1;shadow=0;fontFamily=Architects Daughter;fontSource=https%3A%2F%2Ffonts.googleapis.com%2Fcss%3Ffamily%3DArchitects%2BDaughter;fontSize=12;" parent="1" source="eXN-wqGETpJcmfL0_PJ0-44" target="eXN-wqGETpJcmfL0_PJ0-46" edge="1">
          <mxGeometry relative="1" as="geometry" />
        </mxCell>
        <mxCell id="l0C-tS_rNnkQWnDNGzkq-36" style="edgeStyle=orthogonalEdgeStyle;curved=1;sketch=1;orthogonalLoop=1;jettySize=auto;html=1;exitX=0.5;exitY=1;exitDx=0;exitDy=0;entryX=0.5;entryY=0;entryDx=0;entryDy=0;dashed=1;fontSize=12;" edge="1" parent="1" source="eXN-wqGETpJcmfL0_PJ0-44" target="l0C-tS_rNnkQWnDNGzkq-27">
          <mxGeometry relative="1" as="geometry" />
        </mxCell>
        <mxCell id="eXN-wqGETpJcmfL0_PJ0-44" value="&lt;span style=&quot;font-size: 6px;&quot;&gt;lookForLeader开始选举&lt;/span&gt;" style="rounded=0;whiteSpace=wrap;html=1;sketch=1;hachureGap=4;jiggle=2;fontFamily=Architects Daughter;fontSource=https%3A%2F%2Ffonts.googleapis.com%2Fcss%3Ffamily%3DArchitects%2BDaughter;fontSize=20;fillColor=#ffe6cc;strokeColor=#d79b00;" parent="1" vertex="1">
          <mxGeometry x="-90" y="462.5" width="120" height="65" as="geometry" />
        </mxCell>
        <mxCell id="AgxKfgJzbOdi9m-goNTT-1" style="edgeStyle=orthogonalEdgeStyle;orthogonalLoop=1;jettySize=auto;html=1;exitX=0.5;exitY=0;exitDx=0;exitDy=0;entryX=0.5;entryY=0;entryDx=0;entryDy=0;curved=1;sketch=1;strokeColor=none;" parent="1" target="eXN-wqGETpJcmfL0_PJ0-32" edge="1">
          <mxGeometry relative="1" as="geometry">
            <mxPoint x="310" y="552" as="sourcePoint" />
          </mxGeometry>
        </mxCell>
        <mxCell id="l0C-tS_rNnkQWnDNGzkq-3" style="edgeStyle=orthogonalEdgeStyle;curved=1;sketch=1;orthogonalLoop=1;jettySize=auto;html=1;exitX=1;exitY=0.5;exitDx=0;exitDy=0;entryX=0.5;entryY=0;entryDx=0;entryDy=0;dashed=1;" edge="1" parent="1" source="eXN-wqGETpJcmfL0_PJ0-46" target="eXN-wqGETpJcmfL0_PJ0-30">
          <mxGeometry relative="1" as="geometry" />
        </mxCell>
        <mxCell id="l0C-tS_rNnkQWnDNGzkq-67" value="" style="edgeStyle=orthogonalEdgeStyle;curved=1;sketch=1;orthogonalLoop=1;jettySize=auto;html=1;fontSize=12;" edge="1" parent="1" source="eXN-wqGETpJcmfL0_PJ0-46" target="l0C-tS_rNnkQWnDNGzkq-66">
          <mxGeometry relative="1" as="geometry" />
        </mxCell>
        <mxCell id="eXN-wqGETpJcmfL0_PJ0-46" value="&lt;span style=&quot;font-size: 6px;&quot;&gt;sendNotifications&lt;br&gt;发送自己的选票相关信息到sendqueue队列&lt;br&gt;&lt;/span&gt;" style="rounded=0;whiteSpace=wrap;html=1;sketch=1;hachureGap=4;jiggle=2;fontFamily=Architects Daughter;fontSource=https%3A%2F%2Ffonts.googleapis.com%2Fcss%3Ffamily%3DArchitects%2BDaughter;fontSize=20;fillColor=#ffe6cc;strokeColor=#d79b00;dashed=1;" parent="1" vertex="1">
          <mxGeometry x="110" y="542" width="120" height="85" as="geometry" />
        </mxCell>
        <mxCell id="l0C-tS_rNnkQWnDNGzkq-5" style="edgeStyle=orthogonalEdgeStyle;curved=1;sketch=1;orthogonalLoop=1;jettySize=auto;html=1;exitX=1;exitY=0.25;exitDx=0;exitDy=0;entryX=0;entryY=0.5;entryDx=0;entryDy=0;" edge="1" parent="1" source="l0C-tS_rNnkQWnDNGzkq-1" target="l0C-tS_rNnkQWnDNGzkq-4">
          <mxGeometry relative="1" as="geometry" />
        </mxCell>
        <mxCell id="l0C-tS_rNnkQWnDNGzkq-29" value="listener.start()" style="edgeLabel;html=1;align=center;verticalAlign=middle;resizable=0;points=[];fontSize=12;" vertex="1" connectable="0" parent="l0C-tS_rNnkQWnDNGzkq-5">
          <mxGeometry x="-0.1077" y="4" relative="1" as="geometry">
            <mxPoint as="offset" />
          </mxGeometry>
        </mxCell>
        <mxCell id="l0C-tS_rNnkQWnDNGzkq-1" value="&lt;font style=&quot;font-size: 12px;&quot;&gt;创建选票策略程序&lt;br&gt;createElectionAlgorithm(electionType);&lt;br&gt;&lt;/font&gt;" style="whiteSpace=wrap;html=1;fontSize=20;fontFamily=Architects Daughter;fillColor=#ffe6cc;strokeColor=#d79b00;rounded=0;sketch=1;hachureGap=4;jiggle=2;fontSource=https%3A%2F%2Ffonts.googleapis.com%2Fcss%3Ffamily%3DArchitects%2BDaughter;dashed=1;" vertex="1" parent="1">
          <mxGeometry x="-130" y="360" width="120" height="60" as="geometry" />
        </mxCell>
        <mxCell id="l0C-tS_rNnkQWnDNGzkq-9" style="edgeStyle=orthogonalEdgeStyle;curved=1;sketch=1;orthogonalLoop=1;jettySize=auto;html=1;exitX=1;exitY=0.5;exitDx=0;exitDy=0;entryX=0;entryY=0.5;entryDx=0;entryDy=0;fontSize=12;" edge="1" parent="1" source="l0C-tS_rNnkQWnDNGzkq-4" target="l0C-tS_rNnkQWnDNGzkq-7">
          <mxGeometry relative="1" as="geometry" />
        </mxCell>
        <mxCell id="l0C-tS_rNnkQWnDNGzkq-4" value="&lt;font style=&quot;&quot;&gt;&lt;span style=&quot;font-size: 12px;&quot;&gt;QuorumCnxManager.Listener&lt;br&gt;&lt;/span&gt;&lt;font style=&quot;font-size: 12px;&quot;&gt;接受选举请求&lt;/font&gt;&lt;br&gt;&lt;/font&gt;" style="whiteSpace=wrap;html=1;fontSize=20;fontFamily=Architects Daughter;fillColor=#ffe6cc;strokeColor=#d79b00;rounded=0;sketch=1;hachureGap=4;jiggle=2;fontSource=https%3A%2F%2Ffonts.googleapis.com%2Fcss%3Ffamily%3DArchitects%2BDaughter;dashed=1;" vertex="1" parent="1">
          <mxGeometry x="160" y="275" width="120" height="60" as="geometry" />
        </mxCell>
        <mxCell id="l0C-tS_rNnkQWnDNGzkq-6" style="edgeStyle=orthogonalEdgeStyle;curved=1;sketch=1;orthogonalLoop=1;jettySize=auto;html=1;exitX=1;exitY=0.25;exitDx=0;exitDy=0;entryX=0;entryY=0.5;entryDx=0;entryDy=0;fontSize=12;" edge="1" parent="1" source="l0C-tS_rNnkQWnDNGzkq-1" target="eXN-wqGETpJcmfL0_PJ0-28">
          <mxGeometry relative="1" as="geometry" />
        </mxCell>
        <mxCell id="l0C-tS_rNnkQWnDNGzkq-31" value="FastLeaderElection.start()" style="edgeLabel;html=1;align=center;verticalAlign=middle;resizable=0;points=[];fontSize=12;" vertex="1" connectable="0" parent="l0C-tS_rNnkQWnDNGzkq-6">
          <mxGeometry x="-0.0933" y="-11" relative="1" as="geometry">
            <mxPoint as="offset" />
          </mxGeometry>
        </mxCell>
        <mxCell id="l0C-tS_rNnkQWnDNGzkq-13" style="edgeStyle=orthogonalEdgeStyle;curved=1;sketch=1;orthogonalLoop=1;jettySize=auto;html=1;exitX=1;exitY=0.5;exitDx=0;exitDy=0;fontSize=12;" edge="1" parent="1" source="l0C-tS_rNnkQWnDNGzkq-7" target="l0C-tS_rNnkQWnDNGzkq-12">
          <mxGeometry relative="1" as="geometry" />
        </mxCell>
        <mxCell id="l0C-tS_rNnkQWnDNGzkq-15" style="edgeStyle=orthogonalEdgeStyle;curved=1;sketch=1;orthogonalLoop=1;jettySize=auto;html=1;exitX=1;exitY=0.5;exitDx=0;exitDy=0;fontSize=12;" edge="1" parent="1" source="l0C-tS_rNnkQWnDNGzkq-7" target="l0C-tS_rNnkQWnDNGzkq-14">
          <mxGeometry relative="1" as="geometry" />
        </mxCell>
        <mxCell id="l0C-tS_rNnkQWnDNGzkq-7" value="&lt;font style=&quot;&quot;&gt;&lt;span style=&quot;font-size: 12px;&quot;&gt;handleConnection&lt;br&gt;&lt;/span&gt;&lt;font style=&quot;font-size: 12px;&quot;&gt;处理请求&lt;/font&gt;&lt;br&gt;&lt;/font&gt;" style="whiteSpace=wrap;html=1;fontSize=20;fontFamily=Architects Daughter;fillColor=#ffe6cc;strokeColor=#d79b00;rounded=0;sketch=1;hachureGap=4;jiggle=2;fontSource=https%3A%2F%2Ffonts.googleapis.com%2Fcss%3Ffamily%3DArchitects%2BDaughter;dashed=1;" vertex="1" parent="1">
          <mxGeometry x="414" y="210" width="120" height="60" as="geometry" />
        </mxCell>
        <mxCell id="l0C-tS_rNnkQWnDNGzkq-12" value="&lt;font style=&quot;&quot;&gt;&lt;span style=&quot;font-size: 12px;&quot;&gt;如果请求过来的sid小于我直接关闭,只接受大于我的sid的请求, 防止建立过多的socke链接&lt;/span&gt;&lt;br&gt;&lt;/font&gt;" style="whiteSpace=wrap;html=1;fontSize=20;fontFamily=Architects Daughter;fillColor=#ffe6cc;strokeColor=#d79b00;rounded=0;sketch=1;hachureGap=4;jiggle=2;fontSource=https%3A%2F%2Ffonts.googleapis.com%2Fcss%3Ffamily%3DArchitects%2BDaughter;dashed=1;" vertex="1" parent="1">
          <mxGeometry x="610" y="90" width="120" height="130" as="geometry" />
        </mxCell>
        <mxCell id="l0C-tS_rNnkQWnDNGzkq-17" value="" style="edgeStyle=orthogonalEdgeStyle;curved=1;sketch=1;orthogonalLoop=1;jettySize=auto;html=1;fontSize=12;entryX=0;entryY=0.5;entryDx=0;entryDy=0;" edge="1" parent="1" source="l0C-tS_rNnkQWnDNGzkq-14" target="l0C-tS_rNnkQWnDNGzkq-16">
          <mxGeometry relative="1" as="geometry" />
        </mxCell>
        <mxCell id="l0C-tS_rNnkQWnDNGzkq-18" value="&lt;pre style=&quot;background-color:#2b2b2b;color:#a9b7c6;font-family:&#39;JetBrains Mono&#39;,monospace;font-size:9.8pt;&quot;&gt;&lt;br&gt;&lt;/pre&gt;" style="edgeLabel;html=1;align=center;verticalAlign=middle;resizable=0;points=[];fontSize=12;" vertex="1" connectable="0" parent="l0C-tS_rNnkQWnDNGzkq-17">
          <mxGeometry x="0.2906" y="-26" relative="1" as="geometry">
            <mxPoint as="offset" />
          </mxGeometry>
        </mxCell>
        <mxCell id="l0C-tS_rNnkQWnDNGzkq-19" value="sendWok" style="edgeLabel;html=1;align=center;verticalAlign=middle;resizable=0;points=[];fontSize=12;" vertex="1" connectable="0" parent="l0C-tS_rNnkQWnDNGzkq-17">
          <mxGeometry x="0.2377" y="-13" relative="1" as="geometry">
            <mxPoint as="offset" />
          </mxGeometry>
        </mxCell>
        <mxCell id="l0C-tS_rNnkQWnDNGzkq-22" style="edgeStyle=orthogonalEdgeStyle;curved=1;sketch=1;orthogonalLoop=1;jettySize=auto;html=1;exitX=1;exitY=0.5;exitDx=0;exitDy=0;fontSize=12;" edge="1" parent="1" source="l0C-tS_rNnkQWnDNGzkq-14" target="l0C-tS_rNnkQWnDNGzkq-21">
          <mxGeometry relative="1" as="geometry" />
        </mxCell>
        <mxCell id="l0C-tS_rNnkQWnDNGzkq-23" value="recvWork" style="edgeLabel;html=1;align=center;verticalAlign=middle;resizable=0;points=[];fontSize=12;" vertex="1" connectable="0" parent="l0C-tS_rNnkQWnDNGzkq-22">
          <mxGeometry x="0.0864" y="1" relative="1" as="geometry">
            <mxPoint as="offset" />
          </mxGeometry>
        </mxCell>
        <mxCell id="l0C-tS_rNnkQWnDNGzkq-14" value="&lt;font style=&quot;&quot;&gt;&lt;font style=&quot;font-size: 12px;&quot;&gt;构建SendWorker线程 并记录对应的sid和socke&lt;br&gt;senderWorkerMap.put(sid, sw)并为每个sid建立一个队列queueSendMap&lt;br&gt;RecvWorker,两个线程,并开启&lt;/font&gt;&lt;font style=&quot;font-size: 12px;&quot;&gt;;&lt;/font&gt;&lt;br&gt;&lt;/font&gt;" style="whiteSpace=wrap;html=1;fontSize=20;fontFamily=Architects Daughter;fillColor=#ffe6cc;strokeColor=#d79b00;rounded=0;sketch=1;hachureGap=4;jiggle=2;fontSource=https%3A%2F%2Ffonts.googleapis.com%2Fcss%3Ffamily%3DArchitects%2BDaughter;dashed=1;" vertex="1" parent="1">
          <mxGeometry x="760" y="185" width="230" height="125" as="geometry" />
        </mxCell>
        <mxCell id="l0C-tS_rNnkQWnDNGzkq-16" value="&lt;font style=&quot;&quot;&gt;&lt;font style=&quot;font-size: 12px;&quot;&gt;从queueSendMap里面根据sid取出一个队列,,消费队列的信息socket send发送出去&lt;/font&gt;&lt;br&gt;&lt;/font&gt;" style="whiteSpace=wrap;html=1;fontSize=20;fontFamily=Architects Daughter;fillColor=#ffe6cc;strokeColor=#d79b00;rounded=0;sketch=1;hachureGap=4;jiggle=2;fontSource=https%3A%2F%2Ffonts.googleapis.com%2Fcss%3Ffamily%3DArchitects%2BDaughter;dashed=1;" vertex="1" parent="1">
          <mxGeometry x="1170" y="-30" width="150" height="110" as="geometry" />
        </mxCell>
        <mxCell id="l0C-tS_rNnkQWnDNGzkq-35" style="edgeStyle=orthogonalEdgeStyle;curved=1;sketch=1;orthogonalLoop=1;jettySize=auto;html=1;exitX=0.5;exitY=1;exitDx=0;exitDy=0;entryX=1;entryY=0.4;entryDx=0;entryDy=0;fontSize=12;dashed=1;entryPerimeter=0;" edge="1" parent="1" source="l0C-tS_rNnkQWnDNGzkq-21" target="eXN-wqGETpJcmfL0_PJ0-34">
          <mxGeometry relative="1" as="geometry" />
        </mxCell>
        <mxCell id="l0C-tS_rNnkQWnDNGzkq-21" value="&lt;font style=&quot;&quot;&gt;&lt;span style=&quot;font-size: 12px;&quot;&gt;读取请求信息构建一个Messge对象,把对象添加到recvQueue队列里面&lt;/span&gt;&lt;br&gt;&lt;/font&gt;" style="whiteSpace=wrap;html=1;fontSize=20;fontFamily=Architects Daughter;fillColor=#ffe6cc;strokeColor=#d79b00;rounded=0;sketch=1;hachureGap=4;jiggle=2;fontSource=https%3A%2F%2Ffonts.googleapis.com%2Fcss%3Ffamily%3DArchitects%2BDaughter;dashed=1;" vertex="1" parent="1">
          <mxGeometry x="1160" y="200" width="230" height="110" as="geometry" />
        </mxCell>
        <mxCell id="l0C-tS_rNnkQWnDNGzkq-25" value="&lt;div style=&quot;text-align: justify;&quot;&gt;因为socket是全双工通讯,两台机器一条socket就能满足通讯条件&lt;/div&gt;" style="text;html=1;strokeColor=none;fillColor=none;align=left;verticalAlign=middle;whiteSpace=wrap;rounded=0;dashed=1;fontSize=12;" vertex="1" parent="1">
          <mxGeometry x="610" y="-10" width="130" height="90" as="geometry" />
        </mxCell>
        <mxCell id="l0C-tS_rNnkQWnDNGzkq-27" value="&lt;span style=&quot;font-size: 6px;&quot;&gt;根据选举出来的选票,设置为当前选票setCurrentVote&lt;/span&gt;" style="rounded=0;whiteSpace=wrap;html=1;sketch=1;hachureGap=4;jiggle=2;fontFamily=Architects Daughter;fontSource=https%3A%2F%2Ffonts.googleapis.com%2Fcss%3Ffamily%3DArchitects%2BDaughter;fontSize=20;fillColor=#ffe6cc;strokeColor=#d79b00;dashed=1;" vertex="1" parent="1">
          <mxGeometry x="-70" y="585" width="110" height="105" as="geometry" />
        </mxCell>
        <mxCell id="l0C-tS_rNnkQWnDNGzkq-39" style="edgeStyle=orthogonalEdgeStyle;curved=1;sketch=1;orthogonalLoop=1;jettySize=auto;html=1;exitX=1;exitY=0.5;exitDx=0;exitDy=0;fontSize=12;" edge="1" parent="1" source="l0C-tS_rNnkQWnDNGzkq-37" target="eXN-wqGETpJcmfL0_PJ0-36">
          <mxGeometry relative="1" as="geometry" />
        </mxCell>
        <mxCell id="l0C-tS_rNnkQWnDNGzkq-40" value="否" style="edgeLabel;html=1;align=center;verticalAlign=middle;resizable=0;points=[];fontSize=12;" vertex="1" connectable="0" parent="l0C-tS_rNnkQWnDNGzkq-39">
          <mxGeometry x="-0.28" relative="1" as="geometry">
            <mxPoint as="offset" />
          </mxGeometry>
        </mxCell>
        <mxCell id="l0C-tS_rNnkQWnDNGzkq-45" value="" style="edgeStyle=orthogonalEdgeStyle;curved=1;sketch=1;orthogonalLoop=1;jettySize=auto;html=1;fontSize=12;" edge="1" parent="1" source="l0C-tS_rNnkQWnDNGzkq-37" target="l0C-tS_rNnkQWnDNGzkq-44">
          <mxGeometry relative="1" as="geometry" />
        </mxCell>
        <mxCell id="l0C-tS_rNnkQWnDNGzkq-46" value="是" style="edgeLabel;html=1;align=center;verticalAlign=middle;resizable=0;points=[];fontSize=12;" vertex="1" connectable="0" parent="l0C-tS_rNnkQWnDNGzkq-45">
          <mxGeometry x="-0.2356" y="-1" relative="1" as="geometry">
            <mxPoint as="offset" />
          </mxGeometry>
        </mxCell>
        <mxCell id="l0C-tS_rNnkQWnDNGzkq-37" value="&lt;span style=&quot;font-size: 12px;&quot;&gt;recvQueue.poll&lt;br&gt;&lt;/span&gt;&lt;span style=&quot;font-size: 12px;&quot;&gt;得到一个请求信息&lt;/span&gt;&lt;br style=&quot;font-size: 12px;&quot;&gt;&lt;span style=&quot;font-size: 12px;&quot;&gt;检验票据信息是否有效,看sid是否在配置文件中存在&lt;/span&gt;" style="rhombus;whiteSpace=wrap;html=1;fontSize=20;fontFamily=Architects Daughter;fillColor=#ffe6cc;strokeColor=#d79b00;rounded=0;sketch=1;hachureGap=4;jiggle=2;fontSource=https%3A%2F%2Ffonts.googleapis.com%2Fcss%3Ffamily%3DArchitects%2BDaughter;" vertex="1" parent="1">
          <mxGeometry x="520" y="615" width="120" height="125" as="geometry" />
        </mxCell>
        <mxCell id="l0C-tS_rNnkQWnDNGzkq-49" style="edgeStyle=orthogonalEdgeStyle;curved=1;sketch=1;orthogonalLoop=1;jettySize=auto;html=1;exitX=0.5;exitY=1;exitDx=0;exitDy=0;fontSize=12;" edge="1" parent="1" source="l0C-tS_rNnkQWnDNGzkq-44" target="l0C-tS_rNnkQWnDNGzkq-47">
          <mxGeometry relative="1" as="geometry" />
        </mxCell>
        <mxCell id="l0C-tS_rNnkQWnDNGzkq-44" value="根据请求内容构建一个Notification对象包含选票信息" style="whiteSpace=wrap;html=1;fontSize=12;fontFamily=Architects Daughter;fillColor=#ffe6cc;strokeColor=#d79b00;rounded=0;sketch=1;hachureGap=4;jiggle=2;fontSource=https%3A%2F%2Ffonts.googleapis.com%2Fcss%3Ffamily%3DArchitects%2BDaughter;" vertex="1" parent="1">
          <mxGeometry x="520" y="820" width="120" height="60" as="geometry" />
        </mxCell>
        <mxCell id="l0C-tS_rNnkQWnDNGzkq-53" style="edgeStyle=orthogonalEdgeStyle;curved=1;sketch=1;orthogonalLoop=1;jettySize=auto;html=1;exitX=1;exitY=0.5;exitDx=0;exitDy=0;entryX=0;entryY=0.5;entryDx=0;entryDy=0;fontSize=12;" edge="1" parent="1" source="l0C-tS_rNnkQWnDNGzkq-47" target="l0C-tS_rNnkQWnDNGzkq-52">
          <mxGeometry relative="1" as="geometry" />
        </mxCell>
        <mxCell id="l0C-tS_rNnkQWnDNGzkq-54" value="否" style="edgeLabel;html=1;align=center;verticalAlign=middle;resizable=0;points=[];fontSize=12;" vertex="1" connectable="0" parent="l0C-tS_rNnkQWnDNGzkq-53">
          <mxGeometry x="0.3" relative="1" as="geometry">
            <mxPoint as="offset" />
          </mxGeometry>
        </mxCell>
        <mxCell id="l0C-tS_rNnkQWnDNGzkq-59" value="" style="edgeStyle=orthogonalEdgeStyle;curved=1;sketch=1;orthogonalLoop=1;jettySize=auto;html=1;fontSize=12;" edge="1" parent="1" source="l0C-tS_rNnkQWnDNGzkq-47" target="l0C-tS_rNnkQWnDNGzkq-58">
          <mxGeometry relative="1" as="geometry" />
        </mxCell>
        <mxCell id="l0C-tS_rNnkQWnDNGzkq-60" value="是" style="edgeLabel;html=1;align=center;verticalAlign=middle;resizable=0;points=[];fontSize=12;" vertex="1" connectable="0" parent="l0C-tS_rNnkQWnDNGzkq-59">
          <mxGeometry x="-0.2222" relative="1" as="geometry">
            <mxPoint as="offset" />
          </mxGeometry>
        </mxCell>
        <mxCell id="l0C-tS_rNnkQWnDNGzkq-47" value="当前机器状态是否是looking" style="rhombus;whiteSpace=wrap;html=1;fontFamily=Architects Daughter;fillColor=#ffe6cc;strokeColor=#d79b00;rounded=0;sketch=1;hachureGap=4;jiggle=2;fontSource=https%3A%2F%2Ffonts.googleapis.com%2Fcss%3Ffamily%3DArchitects%2BDaughter;" vertex="1" parent="1">
          <mxGeometry x="540" y="950" width="80" height="80" as="geometry" />
        </mxCell>
        <mxCell id="l0C-tS_rNnkQWnDNGzkq-52" value="如果请求过来的的机器是looking那么根据我自己的信息构建一个toshend对象添加到sendqueue队列里面,发送给他" style="whiteSpace=wrap;html=1;fontFamily=Architects Daughter;fillColor=#ffe6cc;strokeColor=#d79b00;rounded=0;sketch=1;hachureGap=4;jiggle=2;fontSource=https%3A%2F%2Ffonts.googleapis.com%2Fcss%3Ffamily%3DArchitects%2BDaughter;dashed=1;fontSize=12;" vertex="1" parent="1">
          <mxGeometry x="750" y="960" width="180" height="100" as="geometry" />
        </mxCell>
        <mxCell id="l0C-tS_rNnkQWnDNGzkq-58" value="把请求的票据信息放入&amp;nbsp;recvqueue.offer(n);队列&lt;br&gt;如果远端机器也是looking并且选举周期比我当前机器小,那么根据自己信息构建一个选票发送给他&lt;br&gt;sendqueue.offer(notmsg);&lt;br&gt;" style="whiteSpace=wrap;html=1;fontFamily=Architects Daughter;fillColor=#ffe6cc;strokeColor=#d79b00;rounded=0;sketch=1;hachureGap=4;jiggle=2;fontSource=https%3A%2F%2Ffonts.googleapis.com%2Fcss%3Ffamily%3DArchitects%2BDaughter;" vertex="1" parent="1">
          <mxGeometry x="515" y="1110" width="130" height="170" as="geometry" />
        </mxCell>
        <mxCell id="l0C-tS_rNnkQWnDNGzkq-69" value="" style="edgeStyle=orthogonalEdgeStyle;curved=1;sketch=1;orthogonalLoop=1;jettySize=auto;html=1;fontSize=12;" edge="1" parent="1" source="l0C-tS_rNnkQWnDNGzkq-66" target="l0C-tS_rNnkQWnDNGzkq-68">
          <mxGeometry relative="1" as="geometry" />
        </mxCell>
        <mxCell id="l0C-tS_rNnkQWnDNGzkq-70" value="为空" style="edgeLabel;html=1;align=center;verticalAlign=middle;resizable=0;points=[];fontSize=12;" vertex="1" connectable="0" parent="l0C-tS_rNnkQWnDNGzkq-69">
          <mxGeometry x="-0.1837" y="-1" relative="1" as="geometry">
            <mxPoint as="offset" />
          </mxGeometry>
        </mxCell>
        <mxCell id="l0C-tS_rNnkQWnDNGzkq-72" value="" style="edgeStyle=orthogonalEdgeStyle;curved=1;sketch=1;orthogonalLoop=1;jettySize=auto;html=1;fontSize=12;" edge="1" parent="1" source="l0C-tS_rNnkQWnDNGzkq-66" target="l0C-tS_rNnkQWnDNGzkq-71">
          <mxGeometry relative="1" as="geometry" />
        </mxCell>
        <mxCell id="l0C-tS_rNnkQWnDNGzkq-73" value="不为空" style="edgeLabel;html=1;align=center;verticalAlign=middle;resizable=0;points=[];fontSize=12;" vertex="1" connectable="0" parent="l0C-tS_rNnkQWnDNGzkq-72">
          <mxGeometry x="-0.2512" relative="1" as="geometry">
            <mxPoint as="offset" />
          </mxGeometry>
        </mxCell>
        <mxCell id="l0C-tS_rNnkQWnDNGzkq-66" value="&lt;span style=&quot;font-size: 12px;&quot;&gt;从recvqueue队列里面取出一个选举投票信息,是否为空&lt;/span&gt;" style="rhombus;whiteSpace=wrap;html=1;fontSize=20;fontFamily=Architects Daughter;fillColor=#ffe6cc;strokeColor=#d79b00;rounded=0;sketch=1;hachureGap=4;jiggle=2;fontSource=https%3A%2F%2Ffonts.googleapis.com%2Fcss%3Ffamily%3DArchitects%2BDaughter;dashed=1;" vertex="1" parent="1">
          <mxGeometry x="130" y="709.5" width="80" height="120.5" as="geometry" />
        </mxCell>
        <mxCell id="l0C-tS_rNnkQWnDNGzkq-68" value="&lt;font style=&quot;font-size: 12px;&quot;&gt;queueSendMap是否已初始化有值&lt;br&gt;如果有值那么sendNotifications根据给每个sid发送自己的票据,否则就是连理链接初始化&lt;br&gt;&lt;/font&gt;" style="whiteSpace=wrap;html=1;fontSize=20;fontFamily=Architects Daughter;fillColor=#ffe6cc;strokeColor=#d79b00;rounded=0;sketch=1;hachureGap=4;jiggle=2;fontSource=https%3A%2F%2Ffonts.googleapis.com%2Fcss%3Ffamily%3DArchitects%2BDaughter;dashed=1;" vertex="1" parent="1">
          <mxGeometry x="310" y="670.25" width="104" height="149.75" as="geometry" />
        </mxCell>
        <mxCell id="l0C-tS_rNnkQWnDNGzkq-75" value="" style="edgeStyle=orthogonalEdgeStyle;curved=1;sketch=1;orthogonalLoop=1;jettySize=auto;html=1;fontSize=12;" edge="1" parent="1" source="l0C-tS_rNnkQWnDNGzkq-71" target="l0C-tS_rNnkQWnDNGzkq-74">
          <mxGeometry relative="1" as="geometry" />
        </mxCell>
        <mxCell id="l0C-tS_rNnkQWnDNGzkq-76" value="&lt;span style=&quot;font-family: &amp;quot;Architects Daughter&amp;quot;; background-color: rgb(248, 249, 250);&quot;&gt;totalOrderPredicate&lt;/span&gt;" style="edgeLabel;html=1;align=center;verticalAlign=middle;resizable=0;points=[];fontSize=12;" vertex="1" connectable="0" parent="l0C-tS_rNnkQWnDNGzkq-75">
          <mxGeometry x="0.226" y="-1" relative="1" as="geometry">
            <mxPoint as="offset" />
          </mxGeometry>
        </mxCell>
        <mxCell id="l0C-tS_rNnkQWnDNGzkq-71" value="&lt;font style=&quot;font-size: 12px;&quot;&gt;判断请求过来的sid,和leader是否有效,有效的话,判断当前选票的机器如果是looking ,&lt;br&gt;1.如果请求的周期大于自己的周期,那么把自己的周期设置为何请求周期一致,判断totalOrderPredicate请求的票据还是自己的票据胜出,把胜出的票据设置到当前机器的票据信息,然后发送给其他机器&lt;br&gt;2.如果周期相等 判断totalOrderPredicate请求的票据还是自己的票据胜出,把胜出的票据设置到当前机器的票据信息,然后发送给其他机器&lt;br&gt;3.如果所有收到的票据,当前这个请求的sid的票据half=size/2&lt;br&gt;(ackSet.size() &amp;gt; half); 大于一半了&lt;br&gt;4.那么判断请求队列里面是否还有请求如果有那么判断totalOrderPredicate能否胜出如果能胜出那么跳出循环重新入队recvqueue，如果最后没有别的请求了，那么当前胜出的票据信息就是Leader，setPeerState&amp;nbsp; ，如果当前sid和选出来的sid相同那么把当前机器状态设置为LEADING,否则就是FOLLOWING&lt;br&gt;&lt;br&gt;&lt;/font&gt;" style="whiteSpace=wrap;html=1;fontSize=20;fontFamily=Architects Daughter;fillColor=#ffe6cc;strokeColor=#d79b00;rounded=0;sketch=1;hachureGap=4;jiggle=2;fontSource=https%3A%2F%2Ffonts.googleapis.com%2Fcss%3Ffamily%3DArchitects%2BDaughter;dashed=1;" vertex="1" parent="1">
          <mxGeometry x="12.5" y="930" width="327.5" height="440" as="geometry" />
        </mxCell>
        <mxCell id="l0C-tS_rNnkQWnDNGzkq-74" value="&lt;div&gt;&amp;nbsp;&lt;font style=&quot;font-size: 12px;&quot;&gt;return ((newEpoch &amp;gt; curEpoch)&lt;/font&gt;&lt;/div&gt;&lt;div&gt;&lt;font size=&quot;3&quot;&gt;&amp;nbsp; &amp;nbsp; &amp;nbsp; &amp;nbsp; &amp;nbsp; &amp;nbsp; &amp;nbsp; &amp;nbsp; || ((newEpoch == curEpoch)&lt;/font&gt;&lt;/div&gt;&lt;div&gt;&lt;font size=&quot;3&quot;&gt;&amp;nbsp; &amp;nbsp; &amp;nbsp; &amp;nbsp; &amp;nbsp; &amp;nbsp; &amp;nbsp; &amp;nbsp; &amp;nbsp; &amp;nbsp; &amp;amp;&amp;amp; ((newZxid &amp;gt; curZxid)&lt;/font&gt;&lt;/div&gt;&lt;div&gt;&lt;font size=&quot;3&quot;&gt;&amp;nbsp; &amp;nbsp; &amp;nbsp; &amp;nbsp; &amp;nbsp; &amp;nbsp; &amp;nbsp; &amp;nbsp; &amp;nbsp; &amp;nbsp; &amp;nbsp; &amp;nbsp; || ((newZxid == curZxid)&lt;/font&gt;&lt;/div&gt;&lt;div&gt;&lt;font size=&quot;3&quot;&gt;&amp;nbsp; &amp;nbsp; &amp;nbsp; &amp;nbsp; &amp;nbsp; &amp;nbsp; &amp;nbsp; &amp;nbsp; &amp;nbsp; &amp;nbsp; &amp;nbsp; &amp;nbsp; &amp;nbsp; &amp;nbsp; &amp;amp;&amp;amp; (newId &amp;gt; curId)))));&lt;/font&gt;&lt;/div&gt;" style="whiteSpace=wrap;html=1;fontSize=20;fontFamily=Architects Daughter;fillColor=#ffe6cc;strokeColor=#d79b00;rounded=0;sketch=1;hachureGap=4;jiggle=2;fontSource=https%3A%2F%2Ffonts.googleapis.com%2Fcss%3Ffamily%3DArchitects%2BDaughter;dashed=1;" vertex="1" parent="1">
          <mxGeometry x="-570" y="1081.25" width="333.75" height="137.5" as="geometry" />
        </mxCell>
      </root>
    </mxGraphModel>
  </diagram>
</mxfile>
